<?xml version="1.0" encoding="UTF-8" standalone="no"?>
<!-- Created with Inkscape (http://www.inkscape.org/) -->

<svg
   xmlns:dc="http://purl.org/dc/elements/1.1/"
   xmlns:cc="http://creativecommons.org/ns#"
   xmlns:rdf="http://www.w3.org/1999/02/22-rdf-syntax-ns#"
   xmlns:svg="http://www.w3.org/2000/svg"
   xmlns="http://www.w3.org/2000/svg"
   xmlns:xlink="http://www.w3.org/1999/xlink"
   xmlns:sodipodi="http://sodipodi.sourceforge.net/DTD/sodipodi-0.dtd"
   xmlns:inkscape="http://www.inkscape.org/namespaces/inkscape"
   width="64px"
   height="64px"
   id="svg3097"
   version="1.1"
   inkscape:version="0.48.2 r9819"
   sodipodi:docname="New document 4">
  <defs
     id="defs3099">
    <linearGradient
       gradientUnits="userSpaceOnUse"
       y2="347.19934"
       x2="201.25462"
       y1="140.92474"
       x1="284.76846"
       id="linearGradient5865"
       xlink:href="#linearGradient5859"
       inkscape:collect="always" />
    <radialGradient
       gradientUnits="userSpaceOnUse"
       gradientTransform="matrix(1,0,0,1.9408616,0,-180.18343)"
       r="54.938663"
       fy="191.50897"
       fx="202.24966"
       cy="191.50897"
       cx="202.24966"
       id="radialGradient3807"
       xlink:href="#linearGradient3799"
       inkscape:collect="always" />
    <linearGradient
       id="linearGradient3799">
      <stop
         style="stop-color:#f2b46d;stop-opacity:0;"
         offset="0"
         id="stop3809" />
      <stop
         id="stop3817"
         offset="0.5"
         style="stop-color:#795a36;stop-opacity:0;" />
      <stop
         id="stop3803"
         offset="1"
         style="stop-color:#000000;stop-opacity:0;" />
    </linearGradient>
    <marker
       style="overflow:visible;"
       id="Arrow1Lend"
       refX="0.0"
       refY="0.0"
       orient="auto"
       inkscape:stockid="Arrow1Lend">
      <path
         transform="scale(0.8) rotate(180) translate(12.5,0)"
         style="fill-rule:evenodd;stroke:#000000;stroke-width:1.0pt;marker-start:none;"
         d="M 0.0,0.0 L 5.0,-5.0 L -12.5,0.0 L 5.0,5.0 L 0.0,0.0 z "
         id="path4009" />
    </marker>
    <linearGradient
       id="linearGradient5859">
      <stop
         id="stop5861"
         offset="0"
         style="stop-color:#f29b38;stop-opacity:1;" />
      <stop
         style="stop-color:#f27f38;stop-opacity:1;"
         offset="0.5"
         id="stop5867" />
      <stop
         id="stop5863"
         offset="1"
         style="stop-color:#f26438;stop-opacity:1;" />
    </linearGradient>
  </defs>
  <sodipodi:namedview
     id="base"
     pagecolor="#ffffff"
     bordercolor="#666666"
     borderopacity="1.0"
     inkscape:pageopacity="0.0"
     inkscape:pageshadow="2"
     inkscape:zoom="1.9445436"
     inkscape:cx="-59.538187"
     inkscape:cy="32"
     inkscape:current-layer="layer1"
     showgrid="true"
     inkscape:document-units="px"
     inkscape:grid-bbox="true"
     inkscape:window-width="1280"
     inkscape:window-height="684"
     inkscape:window-x="0"
     inkscape:window-y="0"
     inkscape:window-maximized="1" />
  <metadata
     id="metadata3102">
    <rdf:RDF>
      <cc:Work
         rdf:about="">
        <dc:format>image/svg+xml</dc:format>
        <dc:type
           rdf:resource="http://purl.org/dc/dcmitype/StillImage" />
        <dc:title></dc:title>
      </cc:Work>
    </rdf:RDF>
  </metadata>
  <g
     id="layer1"
     inkscape:label="Layer 1"
     inkscape:groupmode="layer">
    <g
       style="enable-background:new"
       id="g3229"
       transform="matrix(0.32353355,0,0,0.32353355,-40.253664,-25.116587)">
      <g
         style="opacity:0"
         inkscape:label="Background"
         id="layer2" />
      <g
         inkscape:label="body"
         id="layer5">
        <path
           id="path3958"
           d="m 230.90625,87.46875 c 9.44835,12.69501 15,28.06171 15,44.65625 0,30.45188 -18.63877,56.86674 -45.90625,69.96875 0.0469,1.09094 0.0625,2.17905 0.0625,3.28125 0,21.72008 -9.22043,41.32688 -24.03125,55.34375 56.22683,18.09112 111.63851,-3.10129 125.84375,-49.3125 14.07976,-45.80299 -17.40812,-99.69377 -70.96875,-123.9375 z"
           style="fill:url(#linearGradient5865);fill-opacity:1"
           inkscape:connector-curvature="0" />
      </g>
      <g
         inkscape:label="outer"
         id="layer3">
        <path
           transform="matrix(0.84697588,0.30101601,-0.28343785,0.7975158,32.220898,-56.36353)"
           d="m 317.53191,189.57446 c 0,59.16889 -25.71664,107.13475 -57.43972,107.13475 -31.72308,0 -57.43971,-47.96586 -57.43971,-107.13475 0,-59.16889 25.71663,-107.134747 57.43971,-107.134747 31.72308,0 57.43972,47.965857 57.43972,107.134747 z"
           sodipodi:ry="107.13475"
           sodipodi:rx="57.439716"
           sodipodi:cy="189.57446"
           sodipodi:cx="260.09219"
           id="path3887"
           style="fill:#f5da9a;fill-opacity:1"
           sodipodi:type="arc" />
      </g>
      <g
         id="g3970"
         inkscape:label="inner">
        <path
           sodipodi:type="arc"
           style="fill:#f5da9a;fill-opacity:1"
           id="path3972"
           sodipodi:cx="260.09219"
           sodipodi:cy="189.57446"
           sodipodi:rx="57.439716"
           sodipodi:ry="107.13475"
           d="m 317.53191,189.57446 c 0,59.16889 -25.71664,107.13475 -57.43972,107.13475 -31.72308,0 -57.43971,-47.96586 -57.43971,-107.13475 0,-59.16889 25.71663,-107.134747 57.43971,-107.134747 31.72308,0 57.43972,47.965857 57.43972,107.134747 z"
           transform="matrix(0.84697588,0.30101601,-0.28343785,0.7975158,32.220898,-56.36353)" />
        <path
           inkscape:connector-curvature="0"
           id="path3974"
           d="m 171.13697,259.13964 c -5.48674,-1.54433 -9.72745,-4.13501 -14.34864,-8.76567 -27.79137,-27.84838 -15.53656,-103.73176 23.26775,-144.07686 16.60081,-17.259978 36.51555,-24.113231 50.91449,-17.521181 12.58469,5.761462 20.64301,18.842551 23.77007,38.586001 1.28763,8.12977 0.92077,28.19898 -0.6748,36.91492 -7.39307,40.38543 -28.49014,74.78981 -55.31552,90.20663 -8.05573,4.62972 -20.34508,6.70195 -27.61335,4.65616 l 0,0 z"
           style="fill:#f2b46d;fill-opacity:0" />
        <path
           inkscape:connector-curvature="0"
           id="path3976"
           d="m 171.13697,259.13964 c -5.48674,-1.54433 -9.72745,-4.13501 -14.34864,-8.76567 -27.79137,-27.84838 -15.53656,-103.73176 23.26775,-144.07686 16.60081,-17.259978 36.51555,-24.113231 50.91449,-17.521181 12.58469,5.761462 20.64301,18.842551 23.77007,38.586001 1.28763,8.12977 0.92077,28.19898 -0.6748,36.91492 -7.39307,40.38543 -28.49014,74.78981 -55.31552,90.20663 -8.05573,4.62972 -20.34508,6.70195 -27.61335,4.65616 l 0,0 z"
           style="fill:#f2b46d;fill-opacity:0" />
        <path
           inkscape:connector-curvature="0"
           id="path3978"
           d="m 171.13697,259.13964 c -5.48674,-1.54433 -9.72745,-4.13501 -14.34864,-8.76567 -27.79137,-27.84838 -15.53656,-103.73176 23.26775,-144.07686 16.60081,-17.259978 36.51555,-24.113231 50.91449,-17.521181 12.58469,5.761462 20.64301,18.842551 23.77007,38.586001 1.28763,8.12977 0.92077,28.19898 -0.6748,36.91492 -7.39307,40.38543 -28.49014,74.78981 -55.31552,90.20663 -8.05573,4.62972 -20.34508,6.70195 -27.61335,4.65616 l 0,0 z"
           style="fill:#f2b46d;fill-opacity:0" />
        <path
           inkscape:connector-curvature="0"
           id="path3980"
           d="m 171.13697,259.13964 c -5.48674,-1.54433 -9.72745,-4.13501 -14.34864,-8.76567 -27.79137,-27.84838 -15.53656,-103.73176 23.26775,-144.07686 16.60081,-17.259978 36.51555,-24.113231 50.91449,-17.521181 12.58469,5.761462 20.64301,18.842551 23.77007,38.586001 1.28763,8.12977 0.92077,28.19898 -0.6748,36.91492 -7.39307,40.38543 -28.49014,74.78981 -55.31552,90.20663 -8.05573,4.62972 -20.34508,6.70195 -27.61335,4.65616 l 0,0 z"
           style="fill:#f2b46d;fill-opacity:0" />
        <path
           inkscape:connector-curvature="0"
           id="path3982"
           d="m 171.13697,259.13964 c -5.48674,-1.54433 -9.72745,-4.13501 -14.34864,-8.76567 -27.79137,-27.84838 -15.53656,-103.73176 23.26775,-144.07686 16.60081,-17.259978 36.51555,-24.113231 50.91449,-17.521181 12.58469,5.761462 20.64301,18.842551 23.77007,38.586001 1.28763,8.12977 0.92077,28.19898 -0.6748,36.91492 -7.39307,40.38543 -28.49014,74.78981 -55.31552,90.20663 -8.05573,4.62972 -20.34508,6.70195 -27.61335,4.65616 l 0,0 z"
           style="fill:#f2b46d;fill-opacity:0" />
        <path
           inkscape:connector-curvature="0"
           id="path3984"
           d="m 174.46601,254.64267 c -5.01618,-1.45752 -8.89319,-3.90256 -13.11805,-8.27291 -25.40789,-26.28286 -14.20409,-97.90041 21.27223,-135.97748 15.17706,-16.289704 33.38384,-22.757697 46.54788,-16.536223 11.50537,5.437578 18.87258,17.783293 21.73145,36.416853 1.1772,7.67276 0.84181,26.61377 -0.61692,34.83974 -6.75902,38.11513 -26.04672,70.58544 -50.57146,85.13561 -7.36485,4.36946 -18.60022,6.32519 -25.24513,4.39441 l 0,0 z"
           style="fill:#f2b46d;fill-opacity:1" />
      </g>
      <g
         inkscape:label="lines"
         id="layer6">
        <path
           inkscape:connector-curvature="0"
           id="path5563"
           d="M 166.51064,254.11347 225.88653,88.893614"
           style="fill:none;stroke:#f5da9a;stroke-width:1px;stroke-linecap:butt;stroke-linejoin:miter;stroke-opacity:1" />
        <path
           inkscape:connector-curvature="0"
           id="path5565"
           d="m 151.02128,160.53191 95.51773,23.87944"
           style="fill:none;stroke:#f5da9a;stroke-width:1px;stroke-linecap:butt;stroke-linejoin:miter;stroke-opacity:1" />
        <path
           inkscape:connector-curvature="0"
           id="path5567"
           d="m 146.50355,214.74468 105.84397,-91"
           style="fill:none;stroke:#f5da9a;stroke-width:1px;stroke-linecap:butt;stroke-linejoin:miter;stroke-opacity:1" />
        <path
           inkscape:connector-curvature="0"
           id="path5571"
           d="m 176.15484,113.0868 42.89782,123.21712"
           style="fill:none;stroke:#f5da9a;stroke-width:1px;stroke-linecap:butt;stroke-linejoin:miter;stroke-opacity:1" />
      </g>
      <g
         inkscape:label="star"
         id="layer7">
        <path
           inkscape:connector-curvature="0"
           id="path5610"
           d="m 193.61702,163.43617 c 0.21513,0 0.64539,-0.21513 0.64539,0 0,0.21513 -0.79751,0.15212 -0.64539,0 0.19392,-0.19392 0.54658,-0.0746 0.80674,-0.16135 0.0722,-0.0241 0.0933,-0.12733 0.16135,-0.16135 0.0962,-0.0481 0.24663,0.0761 0.32269,0 0.038,-0.038 -0.038,-0.12331 0,-0.16134 0.033,-0.033 0.42007,0.032 0.48405,0 0.068,-0.034 0.0933,-0.12734 0.16134,-0.16135 0.12908,-0.0645 0.35497,0.0645 0.48405,0 0.13606,-0.068 0.18663,-0.25467 0.32269,-0.3227 0.0962,-0.0481 0.22649,0.0481 0.3227,0 0.068,-0.034 0.0933,-0.12733 0.16134,-0.16134 0.0481,-0.0241 0.11033,0.017 0.16135,0 0.11409,-0.038 0.20603,-0.13218 0.3227,-0.16135 0.10435,-0.0261 0.22648,0.0481 0.32269,0 0.0481,-0.024 -0.038,-0.12332 0,-0.16135 0.038,-0.038 0.11324,0.0241 0.16135,0 0.068,-0.034 0.0933,-0.12733 0.16135,-0.16135 0.0481,-0.024 0.12331,0.038 0.16134,0 0.038,-0.038 -0.038,-0.12331 0,-0.16134 0.038,-0.038 0.11325,0.024 0.16135,0 0.68879,-0.3444 -0.36609,0.0217 0.3227,-0.3227 0.0481,-0.024 0.11032,0.017 0.16134,0 0.11409,-0.038 0.20861,-0.12332 0.3227,-0.16135 0.051,-0.017 0.12332,0.038 0.16135,0 0.038,-0.038 -0.038,-0.12332 0,-0.16135 0.038,-0.038 0.11324,0.0241 0.16134,0 0.068,-0.034 0.0853,-0.16134 0.16135,-0.16134 0.0538,0 0,0.10756 0,0.16134 0,0.10757 -0.034,0.22065 0,0.3227 0.024,0.0722 0.12733,0.0933 0.16135,0.16135 0.0861,0.1721 -0.0861,0.15059 0,0.32269 0.034,0.068 0.12733,0.0933 0.16135,0.16135 0.024,0.0481 -0.0241,0.11324 0,0.16135 0.034,0.068 0.12733,0.0933 0.16134,0.16135 0.086,0.172 -0.086,0.15069 0,0.32269 0.33575,0.67149 -0.0111,-0.17249 0.3227,0.16135 0.0761,0.0761 -0.0761,0.24663 0,0.32269 0.038,0.038 0.12332,-0.038 0.16135,0 0.038,0.038 -0.038,0.12332 0,0.16135 0.038,0.038 0.12331,-0.038 0.16134,0 0.038,0.038 -0.038,0.12332 0,0.16135 0.038,0.038 0.12332,-0.038 0.16135,0 0.038,0.038 -0.038,0.12332 0,0.16135 0.038,0.038 0.12332,-0.038 0.16135,0 0.038,0.038 -0.038,0.12331 0,0.16134 0.038,0.038 0.12332,-0.038 0.16135,0 0.33383,0.33384 -0.51015,-0.013 0.16134,0.3227 0.0481,0.0241 0.12332,-0.038 0.16135,0 0.038,0.038 -0.0241,0.11324 0,0.16135 0.034,0.068 0.10757,0.10756 0.16135,0.16134 0.0538,0.0538 0.0933,0.12734 0.16135,0.16135 0.0481,0.0241 0.12331,-0.038 0.16134,0 0.038,0.038 -0.038,0.12332 0,0.16135 0.038,0.038 0.12332,-0.038 0.16135,0 0.21513,0.21513 -0.34227,0.15482 0.16135,0.32269 0.10204,0.034 0.22648,-0.0481 0.32269,0 0.0481,0.0241 -0.024,0.11325 0,0.16135 0.034,0.068 0.0933,0.12733 0.16135,0.16135 0.0481,0.024 0.16135,-0.0538 0.16135,0 0,0.0538 -0.21513,0 -0.16135,0 0.7345,0 0.009,-0.0761 0.48404,0.16135 0.0481,0.024 0.12332,-0.038 0.16135,0 0.038,0.038 -0.038,0.12331 0,0.16134 0.0761,0.0761 0.24664,-0.0761 0.3227,0 0.038,0.038 0,0.10757 0,0.16135 0,0.21865 0.0356,1.02267 0,1.12943 -0.0241,0.0722 -0.12734,0.0933 -0.16135,0.16135 -0.0515,0.10311 0.0433,0.51552 0,0.64539 -0.038,0.11409 -0.12332,0.20861 -0.16135,0.3227 -0.0338,0.10127 0,0.5155 0,0.64539 0,0.53782 0,1.07565 0,1.61347 0,0.15606 -0.0239,0.92023 0,0.96809 0.034,0.068 0.12733,0.0933 0.16135,0.16134 0.0864,0.17272 -0.13972,0.34433 0.16135,0.64539 0.038,0.038 0.12331,-0.038 0.16134,0 0.0761,0.0761 -0.0481,0.22649 0,0.3227 0.36922,0.73842 -0.0669,-0.68467 0.3227,0.48404 0.017,0.051 -0.038,0.12332 0,0.16135 0.038,0.038 0.12332,-0.038 0.16135,0 0.0761,0.0761 -0.034,0.22065 0,0.32269 0.0538,0.10757 0.10756,0.21513 0.16134,0.3227 0.0538,0 0.12332,-0.038 0.16135,0 0.038,0.038 -0.038,0.12332 0,0.16135 0.038,0.038 0.12332,-0.038 0.16135,0 0.038,0.038 0.038,0.12331 0,0.16134 -0.025,0.025 -0.42126,-0.0209 -0.48404,0 -0.11409,0.038 -0.22264,0.0946 -0.3227,0.16135 -0.0633,0.0422 -0.0892,0.1373 -0.16135,0.16135 -0.10204,0.034 -0.22648,-0.0481 -0.32269,0 -0.0481,0.024 0.038,0.12332 0,0.16135 -0.038,0.038 -0.11324,-0.0241 -0.16135,0 -0.13606,0.068 -0.18663,0.25466 -0.32269,0.32269 -0.0481,0.024 -0.11325,-0.024 -0.16135,0 -0.068,0.034 -0.0933,0.12733 -0.16135,0.16135 -0.0481,0.024 -0.12332,-0.038 -0.16135,0 -0.038,0.038 0.038,0.12332 0,0.16135 -0.038,0.038 -0.11324,-0.0241 -0.16134,0 -0.068,0.034 -0.0933,0.12733 -0.16135,0.16134 -0.0481,0.0241 -0.12332,-0.038 -0.16135,0 -0.33383,0.33384 0.51014,-0.013 -0.16135,0.3227 -0.22255,0.11128 -0.14432,-0.1954 -0.32269,0.16135 -0.0481,0.0962 0.0761,0.24663 0,0.32269 -0.038,0.038 -0.12332,-0.038 -0.16135,0 -0.038,0.038 0.024,0.11324 0,0.16135 -0.034,0.068 -0.13729,0.0892 -0.16135,0.16135 -0.034,0.10204 0.0481,0.22648 0,0.32269 -0.0241,0.0481 -0.12331,-0.038 -0.16134,0 -0.0761,0.0761 0.0761,0.24664 0,0.3227 -0.038,0.038 -0.1373,-0.0481 -0.16135,0 -0.0481,0.0962 0,0.21513 0,0.32269 0,0.0538 0.038,0.12332 0,0.16135 -0.038,0.038 -0.12332,-0.038 -0.16135,0 -0.0761,0.0761 0.0481,0.22649 0,0.32269 -0.034,0.068 -0.12733,0.0933 -0.16135,0.16135 -0.0645,0.12908 0.0645,0.35497 0,0.48404 -0.19937,0.39876 -0.16134,-0.0557 -0.16134,0.3227 0,0.0592 0.006,0.6389 0,0.64539 -0.038,0.038 -0.12332,-0.038 -0.16135,0 -0.038,0.038 0,0.10756 0,0.16135 0,0.10756 0.0481,0.22648 0,0.32269 -0.024,0.0481 -0.12332,-0.038 -0.16135,0 -0.038,0.038 0.024,0.11325 0,0.16135 -0.034,0.068 -0.12733,0.0933 -0.16135,0.16135 -0.024,0.0481 0.0538,0.16134 0,0.16134 -0.0538,0 0.0538,-0.16134 0,-0.16134 -0.063,0 -0.18171,0.30233 -0.32269,0.16134 -0.038,-0.038 0.038,-0.12331 0,-0.16134 -0.038,-0.038 -0.12332,0.038 -0.16135,0 -0.038,-0.038 0.038,-0.12332 0,-0.16135 -0.038,-0.038 -0.12332,0.038 -0.16135,0 -0.3953,-0.7906 0.0528,-0.13496 -0.32269,-0.3227 -0.068,-0.034 -0.0981,-0.11915 -0.16135,-0.16134 -0.10006,-0.0667 -0.22263,-0.0946 -0.32269,-0.16135 -0.0633,-0.0422 -0.10757,-0.10757 -0.16135,-0.16135 -0.10757,-0.0538 -0.21957,-0.0995 -0.3227,-0.16135 -0.12393,-0.0744 -0.59598,-0.43135 -0.80673,-0.48404 -0.10436,-0.0261 -0.21835,0.0261 -0.3227,0 -0.11667,-0.0292 -0.20602,-0.13218 -0.32269,-0.16135 -0.10436,-0.0261 -0.21513,0 -0.3227,0 -0.10756,-0.0538 -0.2086,-0.12331 -0.32269,-0.16134 -0.051,-0.017 -0.10757,0 -0.16135,0 -0.10757,0 -0.21513,0 -0.3227,0 -0.0538,0 -0.16134,0.0538 -0.16134,0 0,-0.0538 0.21513,0 0.16134,0 -0.21513,0 -0.43026,0 -0.64539,0 -0.0538,0 -0.12331,-0.038 -0.16134,0 -0.038,0.038 0.038,0.12331 0,0.16134 -0.0807,0.0807 -0.40337,-0.0807 -0.48405,0 -0.038,0.038 0.0241,0.11325 0,0.16135 -0.034,0.068 -0.0933,0.12733 -0.16134,0.16135 -0.0481,0.024 -0.10757,0 -0.16135,0 -0.0538,0 -0.12332,0.038 -0.16135,0 -0.038,-0.038 0.038,-0.12332 0,-0.16135 -0.038,-0.038 -0.11324,0.024 -0.16135,0 -0.068,-0.034 -0.0933,-0.12733 -0.16134,-0.16135 -0.0481,-0.0241 -0.12332,0.038 -0.16135,0 -0.038,-0.038 0.038,-0.12331 0,-0.16134 -0.33384,-0.33384 0.013,0.51014 -0.3227,-0.16135 -0.0241,-0.0481 0.038,-0.12332 0,-0.16135 -0.038,-0.038 -0.1166,0.0298 -0.16134,0 -0.12658,-0.0844 -0.201,-0.23142 -0.3227,-0.32269 -0.21622,-0.16217 -0.57431,-0.22973 -0.80674,-0.3227 -0.0223,-0.009 -0.63778,-0.32117 -0.64539,-0.32269 -1.14439,0 -0.0945,0.11409 -0.64539,-0.16135 -0.0481,-0.0241 -0.10756,0 -0.16135,0 -0.10756,0 -0.21513,0 -0.32269,0 -0.0538,0 -0.16135,0.0538 -0.16135,0 0,-0.0538 0.16135,0.0538 0.16135,0 0,-0.0761 -0.12733,-0.0933 -0.16135,-0.16135 -0.024,-0.048 0,-0.90021 0,-0.96808 0,-0.0538 -0.024,-0.11325 0,-0.16135 0.034,-0.068 0.1373,-0.0892 0.16135,-0.16135 2.4e-4,-7.3e-4 -1.5e-4,-0.48389 0,-0.48404 0.038,-0.038 0.12332,0.038 0.16135,0 0.038,-0.038 0,-0.10757 0,-0.16135 0,-0.0538 0,-0.10756 0,-0.16135 0,-0.64539 0,-1.29078 0,-1.93617 0,-0.26891 0,-0.53782 0,-0.80673 0,-0.16135 0.051,-0.33098 0,-0.48405 -0.0241,-0.0721 -0.12734,-0.0933 -0.16135,-0.16134 -0.024,-0.0481 0.0241,-0.11325 0,-0.16135 -0.0968,-0.19362 -0.38723,-0.29043 -0.48404,-0.48404 -0.0481,-0.0962 0.0761,-0.24664 0,-0.3227 -0.038,-0.038 -0.12332,0.038 -0.16135,0 -0.038,-0.038 0,-0.10756 0,-0.16135 -0.0538,0 -0.12332,0.038 -0.16135,0 -0.038,-0.038 0.0241,-0.11324 0,-0.16134 -0.021,-0.042 -0.28747,-0.19657 -0.16135,-0.3227 0.038,-0.038 0.11033,0.017 0.16135,0 0.22818,-0.0761 0.41721,-0.24663 0.64539,-0.32269 0.051,-0.017 0.11325,0.0241 0.16135,0 0.068,-0.034 0.0981,-0.11916 0.16135,-0.16135 0.26868,-0.17912 0.71884,-0.29711 0.96808,-0.48404 0.18255,-0.13691 0.29419,-0.35748 0.48405,-0.48405 0.10006,-0.0667 0.22263,-0.0946 0.32269,-0.16134 0.0633,-0.0422 0.0933,-0.12734 0.16135,-0.16135 0.0481,-0.0241 0.11324,0.024 0.16135,0 0.67148,-0.33575 -0.17249,0.0111 0.16134,-0.3227 0.19652,-0.19652 0.36049,-0.0756 0.48405,-0.32269 0.024,-0.0481 -0.0241,-0.11324 0,-0.16135 0.0715,-0.14301 0.38612,-0.33716 0.48404,-0.48404 0.0667,-0.10007 0.0763,-0.23766 0.16135,-0.3227 0.038,-0.038 0.12331,0.038 0.16134,0 0.0761,-0.0761 -0.0481,-0.22648 0,-0.32269 0.034,-0.068 0.12734,-0.0933 0.16135,-0.16135 0.0241,-0.0481 -0.038,-0.12332 0,-0.16135 0.038,-0.038 0.12332,0.038 0.16135,0 0.0761,-0.0761 -0.0761,-0.24663 0,-0.32269 0.038,-0.038 0.12332,0.038 0.16135,0 0.038,-0.038 0,-0.10757 0,-0.16135 0,-0.21513 0,-0.43026 0,-0.64539 0,-0.0538 0,-0.10756 0,-0.16135 0,-0.0538 0.0241,-0.11324 0,-0.16134 -0.14025,-0.2805 -0.3227,-0.53783 -0.48405,-0.80674 z"
           style="fill:none;stroke:#f5da9a;stroke-width:1px;stroke-linecap:butt;stroke-linejoin:miter;stroke-opacity:0" />
        <path
           id="path5672"
           d="m 199.9375,161.65625 c -0.43607,1.40058 -1.74574,2.4375 -3.3125,2.4375 -1.46538,0 -2.70584,-0.89504 -3.21875,-2.15625 -0.14456,0.0581 -0.26536,0.15411 -0.40625,0.21875 0.24458,0.60352 0.375,1.27695 0.375,1.96875 0,2.86603 -2.30327,5.1875 -5.15625,5.1875 -0.24114,0 -0.4864,-0.0304 -0.71875,-0.0625 -0.0581,0.34463 -0.10437,0.70655 -0.125,1.0625 1.47439,0.87007 2.5,2.57474 2.5,4.53125 0,0.71038 -0.13625,1.38445 -0.375,2 0.2563,0.31398 0.51911,0.62552 0.8125,0.90625 0.0814,-0.008 0.16637,-0.0312 0.25,-0.0312 1.14739,0 2.09314,0.79797 2.34375,1.84375 0.24158,0.11334 0.49804,0.21861 0.75,0.3125 0.63807,-0.7256 1.57309,-1.1875 2.625,-1.1875 1.22555,0 2.28632,0.62073 2.90625,1.5625 0.26436,-0.0585 0.52581,-0.10965 0.78125,-0.1875 -0.12944,-0.40575 -0.21875,-0.83604 -0.21875,-1.28125 0,-2.46576 2.11907,-4.4375 4.75,-4.4375 0.54466,0 1.07504,0.0923 1.5625,0.25 0.0787,-0.18559 0.15159,-0.37119 0.21875,-0.5625 -1.39064,-0.69318 -2.40625,-2.65351 -2.40625,-5 0,-1.51247 0.42472,-2.87938 1.09375,-3.84375 -0.16829,-0.22756 -0.34383,-0.44452 -0.53125,-0.65625 -0.27652,0.0696 -0.54518,0.125 -0.84375,0.125 -1.75505,0 -3.1988,-1.27602 -3.4375,-2.9375 -0.0712,-0.0232 -0.14686,-0.0409 -0.21875,-0.0625 z"
           style="fill:#f5da9a;fill-opacity:1;stroke:#f5da9a;stroke-width:1;stroke-linecap:butt;stroke-linejoin:miter;stroke-miterlimit:8.5;stroke-opacity:1;stroke-dasharray:none;stroke-dashoffset:0"
           inkscape:connector-curvature="0" />
      </g>
    </g>
  </g>
</svg>
